<?xml version="1.0" encoding="UTF-8" standalone="no"?>
<!-- Created with Inkscape (http://www.inkscape.org/) -->

<svg
   xmlns:dc="http://purl.org/dc/elements/1.1/"
   xmlns:cc="http://creativecommons.org/ns#"
   xmlns:rdf="http://www.w3.org/1999/02/22-rdf-syntax-ns#"
   xmlns:svg="http://www.w3.org/2000/svg"
   xmlns="http://www.w3.org/2000/svg"
   xmlns:xlink="http://www.w3.org/1999/xlink"
   xmlns:sodipodi="http://sodipodi.sourceforge.net/DTD/sodipodi-0.dtd"
   xmlns:inkscape="http://www.inkscape.org/namespaces/inkscape"
   id="svg2"
   sodipodi:version="0.32"
   inkscape:version="0.48.1 "
   width="700"
   height="525"
   version="1.0"
   sodipodi:docname="Pinguino.svg"
   inkscape:output_extension="org.inkscape.output.svg.inkscape"
   inkscape:export-filename="F:\8. Progetti\Inkscape\pinguino01.png"
   inkscape:export-xdpi="180"
   inkscape:export-ydpi="180">
  <metadata
     id="metadata7">
    <rdf:RDF>
      <cc:Work
         rdf:about="">
        <dc:format>image/svg+xml</dc:format>
        <dc:type
           rdf:resource="http://purl.org/dc/dcmitype/StillImage" />
        <dc:title></dc:title>
      </cc:Work>
    </rdf:RDF>
  </metadata>
  <defs
     id="defs5">
    <linearGradient
       inkscape:collect="always"
       id="linearGradient5304">
      <stop
         style="stop-color:#ffffff;stop-opacity:1;"
         offset="0"
         id="stop5306" />
      <stop
         style="stop-color:#ffffff;stop-opacity:0;"
         offset="1"
         id="stop5308" />
    </linearGradient>
    <linearGradient
       inkscape:collect="always"
       id="linearGradient5294">
      <stop
         style="stop-color:#ffffff;stop-opacity:1;"
         offset="0"
         id="stop5296" />
      <stop
         style="stop-color:#ffffff;stop-opacity:0;"
         offset="1"
         id="stop5298" />
    </linearGradient>
    <linearGradient
       id="linearGradient5286">
      <stop
         style="stop-color:#ffffff;stop-opacity:1;"
         offset="0"
         id="stop5288" />
      <stop
         style="stop-color:#ffffff;stop-opacity:0;"
         offset="1"
         id="stop5290" />
    </linearGradient>
    <linearGradient
       id="linearGradient5278">
      <stop
         style="stop-color:#ffffff;stop-opacity:1;"
         offset="0"
         id="stop5280" />
      <stop
         style="stop-color:#ffffff;stop-opacity:0"
         offset="1"
         id="stop5282" />
    </linearGradient>
    <linearGradient
       id="linearGradient4271">
      <stop
         style="stop-color:#ffe200;stop-opacity:1;"
         offset="0"
         id="stop4273" />
      <stop
         style="stop-color:#ff8400;stop-opacity:1;"
         offset="1"
         id="stop4275" />
    </linearGradient>
    <linearGradient
       id="linearGradient4153">
      <stop
         id="stop4155"
         offset="0"
         style="stop-color:#ffffff;stop-opacity:1;" />
      <stop
         id="stop4159"
         offset="1"
         style="stop-color:#ffffff;stop-opacity:0;" />
    </linearGradient>
    <linearGradient
       id="linearGradient4136">
      <stop
         style="stop-color:#f5f5f5;stop-opacity:1;"
         offset="0"
         id="stop4138" />
      <stop
         id="stop4144"
         offset="0.39285713"
         style="stop-color:#e6e6e6;stop-opacity:1;" />
      <stop
         style="stop-color:#afafaf;stop-opacity:1;"
         offset="1"
         id="stop4140" />
    </linearGradient>
    <radialGradient
       inkscape:collect="always"
       xlink:href="#linearGradient4136"
       id="radialGradient4142"
       cx="368.03079"
       cy="227.12892"
       fx="368.03079"
       fy="227.12892"
       r="16.839863"
       gradientTransform="matrix(1,0,0,0.8391959,0,36.523264)"
       gradientUnits="userSpaceOnUse" />
    <radialGradient
       inkscape:collect="always"
       xlink:href="#linearGradient4136"
       id="radialGradient4152"
       cx="335.28958"
       cy="225.15953"
       fx="335.28958"
       fy="225.15953"
       r="16.593689"
       gradientTransform="matrix(1,0,0,1.2225313,0,-50.105049)"
       gradientUnits="userSpaceOnUse" />
    <linearGradient
       inkscape:collect="always"
       xlink:href="#linearGradient4153"
       id="linearGradient4151"
       x1="355.82904"
       y1="207.24995"
       x2="381.1282"
       y2="228.66713"
       gradientUnits="userSpaceOnUse"
       gradientTransform="matrix(2.3215354,0,0,2.3215354,-457.35237,-354.87111)" />
    <linearGradient
       inkscape:collect="always"
       xlink:href="#linearGradient4136"
       id="linearGradient4175"
       x1="360.55936"
       y1="246.92766"
       x2="359.09558"
       y2="231.29559"
       gradientUnits="userSpaceOnUse"
       gradientTransform="matrix(2.3504649,0,0,2.3504649,-468.75654,-357.99101)" />
    <linearGradient
       inkscape:collect="always"
       xlink:href="#linearGradient4153"
       id="linearGradient4221"
       x1="353.53125"
       y1="220.59375"
       x2="360.91455"
       y2="230.63777"
       gradientUnits="userSpaceOnUse"
       gradientTransform="translate(-0.1230872,0.5644516)" />
    <linearGradient
       inkscape:collect="always"
       xlink:href="#linearGradient4153"
       id="linearGradient4229"
       x1="354.6875"
       y1="235.50639"
       x2="354.68753"
       y2="228.66388"
       gradientUnits="userSpaceOnUse"
       gradientTransform="matrix(0.7542518,0,0,0.7542518,87.163803,56.959817)" />
    <linearGradient
       inkscape:collect="always"
       xlink:href="#linearGradient4153"
       id="linearGradient4244"
       gradientUnits="userSpaceOnUse"
       gradientTransform="matrix(0.7542518,0,0,0.7542518,87.163803,56.959817)"
       x1="355.30255"
       y1="237.53241"
       x2="349.39001"
       y2="224.2139" />
    <linearGradient
       inkscape:collect="always"
       xlink:href="#linearGradient4153"
       id="linearGradient4246"
       gradientUnits="userSpaceOnUse"
       gradientTransform="translate(-0.1503751,0.182421)"
       x1="353.53125"
       y1="220.59375"
       x2="360.91455"
       y2="230.63777" />
    <linearGradient
       inkscape:collect="always"
       xlink:href="#linearGradient4153"
       id="linearGradient4264"
       x1="318.63837"
       y1="204.96875"
       x2="345.01593"
       y2="224.24173"
       gradientUnits="userSpaceOnUse"
       gradientTransform="matrix(2.4889479,0,0,2.4889479,-522.40355,-390.62001)" />
    <linearGradient
       inkscape:collect="always"
       xlink:href="#linearGradient4136"
       id="linearGradient4266"
       x1="331.26981"
       y1="251.09763"
       x2="331.10071"
       y2="235.58864"
       gradientUnits="userSpaceOnUse"
       gradientTransform="matrix(2.2521352,0,0,2.2521352,-443.35339,-333.64299)" />
    <radialGradient
       inkscape:collect="always"
       xlink:href="#linearGradient4271"
       id="radialGradient4287"
       cx="350.01215"
       cy="247.8781"
       fx="350.01215"
       fy="247.8781"
       r="15.343988"
       gradientTransform="matrix(3.3929171,0,0,2.8018287,-837.23581,-467.31347)"
       gradientUnits="userSpaceOnUse"
       spreadMethod="pad" />
    <linearGradient
       inkscape:collect="always"
       xlink:href="#linearGradient4153"
       id="linearGradient4327"
       x1="337.41837"
       y1="236.04474"
       x2="364.10571"
       y2="248.48546"
       gradientUnits="userSpaceOnUse"
       gradientTransform="matrix(2.552997,0,0,2.552997,-543.25356,-405.63354)" />
    <linearGradient
       inkscape:collect="always"
       xlink:href="#linearGradient4153"
       id="linearGradient4342"
       x1="334.85251"
       y1="257.98688"
       x2="349.01184"
       y2="247.62962"
       gradientUnits="userSpaceOnUse"
       gradientTransform="matrix(2.552997,0,0,2.552997,-543.25356,-405.63354)" />
    <radialGradient
       inkscape:collect="always"
       xlink:href="#linearGradient4271"
       id="radialGradient4358"
       cx="315.59183"
       cy="324.48013"
       fx="315.59183"
       fy="324.48013"
       r="29.799032"
       gradientTransform="matrix(2.552997,0,0,1.276067,-543.25356,8.7047976)"
       gradientUnits="userSpaceOnUse" />
    <linearGradient
       inkscape:collect="always"
       xlink:href="#linearGradient4153"
       id="linearGradient4370"
       x1="312.75827"
       y1="311.54584"
       x2="311.91241"
       y2="337.14798"
       gradientUnits="userSpaceOnUse"
       gradientTransform="matrix(2.552997,0,0,2.552997,-543.25356,-405.63354)" />
    <radialGradient
       inkscape:collect="always"
       xlink:href="#linearGradient4271"
       id="radialGradient4382"
       gradientUnits="userSpaceOnUse"
       gradientTransform="matrix(1,0,0,0.499831,0,162.29488)"
       cx="315.59183"
       cy="324.48013"
       fx="315.59183"
       fy="324.48013"
       r="29.799032" />
    <linearGradient
       inkscape:collect="always"
       xlink:href="#linearGradient4153"
       id="linearGradient4384"
       gradientUnits="userSpaceOnUse"
       x1="312.75827"
       y1="311.54584"
       x2="311.91241"
       y2="337.14798" />
    <linearGradient
       inkscape:collect="always"
       xlink:href="#linearGradient5286"
       id="linearGradient5292"
       x1="345.73672"
       y1="173.06241"
       x2="352.78687"
       y2="232.63663"
       gradientUnits="userSpaceOnUse"
       gradientTransform="matrix(2.552997,0,0,2.552997,-543.25356,-405.63354)" />
    <linearGradient
       inkscape:collect="always"
       xlink:href="#linearGradient5294"
       id="linearGradient5300"
       x1="328.43436"
       y1="191.63353"
       x2="327.2674"
       y2="226.875"
       gradientUnits="userSpaceOnUse"
       gradientTransform="matrix(2.5808966,0,0,2.4951389,-552.01841,-392.507)" />
    <linearGradient
       inkscape:collect="always"
       xlink:href="#linearGradient5294"
       id="linearGradient5302"
       x1="361.35818"
       y1="191.9792"
       x2="362.75168"
       y2="232.84416"
       gradientUnits="userSpaceOnUse"
       gradientTransform="matrix(2.695277,0,0,2.552997,-597.73803,-405.63354)" />
    <linearGradient
       inkscape:collect="always"
       xlink:href="#linearGradient5304"
       id="linearGradient5310"
       x1="344.0762"
       y1="253.55283"
       x2="349.98438"
       y2="333.39316"
       gradientUnits="userSpaceOnUse"
       gradientTransform="matrix(2.552997,0,0,2.552997,-543.25356,-408.77595)" />
    <linearGradient
       inkscape:collect="always"
       xlink:href="#linearGradient5304"
       id="linearGradient5312"
       x1="268.0253"
       y1="241.36444"
       x2="286.00357"
       y2="285.96799"
       gradientUnits="userSpaceOnUse"
       gradientTransform="matrix(2.552997,0,0,2.552997,-540.73963,-405.63354)" />
    <linearGradient
       inkscape:collect="always"
       xlink:href="#linearGradient5304"
       id="linearGradient5314"
       x1="411.55325"
       y1="239.39503"
       x2="412.79166"
       y2="285.96799"
       gradientUnits="userSpaceOnUse"
       gradientTransform="matrix(2.552997,0,0,2.552997,-543.88204,-404.37657)" />
    <linearGradient
       inkscape:collect="always"
       xlink:href="#linearGradient4136"
       id="linearGradient5322"
       x1="349.8125"
       y1="236.25"
       x2="349.8125"
       y2="307.89166"
       gradientUnits="userSpaceOnUse"
       gradientTransform="matrix(2.552997,0,0,2.552997,-543.25356,-405.63354)" />
    <linearGradient
       inkscape:collect="always"
       xlink:href="#linearGradient4153"
       id="linearGradient5653"
       gradientUnits="userSpaceOnUse"
       x1="312.75827"
       y1="311.54584"
       x2="311.91241"
       y2="337.14798" />
    <linearGradient
       inkscape:collect="always"
       xlink:href="#linearGradient4153"
       id="linearGradient5657"
       gradientUnits="userSpaceOnUse"
       x1="312.75827"
       y1="311.54584"
       x2="311.91241"
       y2="337.14798" />
    <filter
       inkscape:collect="always"
       x="-0.070338324"
       width="1.1406766"
       y="-0.26434052"
       height="1.5286812"
       id="filter9395">
      <feGaussianBlur
         inkscape:collect="always"
         stdDeviation="3.2321114"
         id="feGaussianBlur9397" />
    </filter>
    <filter
       inkscape:collect="always"
       x="-0.11556326"
       width="1.2311265"
       y="-0.13914531"
       height="1.2782906"
       id="filter10453">
      <feGaussianBlur
         inkscape:collect="always"
         stdDeviation="3.8546821"
         id="feGaussianBlur10455" />
    </filter>
    <filter
       inkscape:collect="always"
       x="-0.079220295"
       width="1.1584406"
       y="-0.65796852"
       height="2.315937"
       id="filter11548">
      <feGaussianBlur
         inkscape:collect="always"
         stdDeviation="5.8311015"
         id="feGaussianBlur11550" />
    </filter>
  </defs>
  <sodipodi:namedview
     inkscape:window-height="1002"
     inkscape:window-width="1280"
     inkscape:pageshadow="2"
     inkscape:pageopacity="0.0"
     guidetolerance="10.0"
     gridtolerance="10.0"
     objecttolerance="10.0"
     borderopacity="1.0"
     bordercolor="#666666"
     pagecolor="#ffffff"
     id="base"
     inkscape:zoom="0.96190476"
     inkscape:cx="350"
     inkscape:cy="262.5"
     inkscape:window-x="-8"
     inkscape:window-y="-8"
     inkscape:current-layer="layer10"
     width="1024px"
     height="525px"
     showgrid="false"
     inkscape:window-maximized="1" />
  <g
     inkscape:groupmode="layer"
     id="layer10"
     inkscape:label="specchio 2"
     style="display:inline">
    <path
       sodipodi:type="arc"
       style="opacity:0.75;fill:#000000;fill-opacity:1;stroke:none;stroke-opacity:1;filter:url(#filter11548)"
       id="path10461"
       sodipodi:cx="348.82919"
       sodipodi:cy="335.93802"
       sodipodi:rx="73.606155"
       sodipodi:ry="8.8622799"
       d="M 422.43535 335.93802 A 73.606155 8.8622799 0 1 1  275.22304,335.93802 A 73.606155 8.8622799 0 1 1  422.43535 335.93802 z"
       transform="matrix(2.6042275,0,0,2.0304473,-561.12433,-225.68981)"
       inkscape:export-filename="C:\Documents and Settings\agms001\Desktop\pingu.png"
       inkscape:export-xdpi="436.38"
       inkscape:export-ydpi="436.38" />
  </g>
  <g
     inkscape:groupmode="layer"
     id="layer2"
     inkscape:label="corpo"
     style="opacity:1;display:inline">
    <path
       id="path2161"
       style="fill:#000000;fill-opacity:1;fill-rule:evenodd;stroke:none;stroke-width:0.2;stroke-linecap:butt;stroke-linejoin:miter;stroke-miterlimit:4;stroke-opacity:1"
       d="M 349.8098,446.98736 C 376.83455,448.24433 495.76446,423.41927 498.12126,298.03699 C 521.84649,298.97971 546.67155,324.27613 557.19863,317.51996 C 568.17458,310.4757 549.81396,285.31022 522.0036,264.09893 C 494.58891,243.18943 476.38448,214.03762 474.86741,201.87915 C 471.19845,172.47437 468.5826,47.979056 349.8098,47.979056 C 231.35125,47.979056 228.42115,172.47437 224.75219,201.87915 C 223.23512,214.03762 205.03069,243.18943 177.616,264.09893 C 149.80564,285.31022 131.44502,310.4757 142.42097,317.51996 C 152.94805,324.27613 177.77311,298.97971 201.49834,298.03699 C 203.85514,423.41927 322.78505,448.24433 349.8098,446.98736 z "
       sodipodi:nodetypes="ccssszssscc"
       inkscape:export-filename="C:\Documents and Settings\agms001\Desktop\pingu.png"
       inkscape:export-xdpi="436.38"
       inkscape:export-ydpi="436.38" />
    <path
       style="fill:url(#linearGradient5322);fill-opacity:1;stroke:none"
       d="M 349.81669,197.512 C 283.55452,197.512 229.74605,262.64048 229.74605,342.95304 C 229.74605,361.73082 232.77115,379.68337 238.12308,396.16707 C 276.09293,437.62588 332.28697,447.80299 349.81669,446.98767 C 367.34639,447.80302 423.54045,437.62588 461.51031,396.16707 C 466.86223,379.68337 469.88733,361.73082 469.88733,342.95304 C 469.88733,262.64051 416.07889,197.512 349.81669,197.512 z "
       id="path3270"
       inkscape:export-filename="C:\Documents and Settings\agms001\Desktop\pingu.png"
       inkscape:export-xdpi="436.38"
       inkscape:export-ydpi="436.38" />
  </g>
  <g
     inkscape:groupmode="layer"
     id="layer6"
     inkscape:label="specchio"
     style="opacity:1;display:inline">
    <path
       style="fill:url(#linearGradient5292);fill-opacity:1;stroke:none"
       d="M 347.74238,54.783508 C 299.41609,54.783508 260.22248,86.852112 260.22246,126.3472 C 260.22246,128.23936 260.36484,130.0766 260.54158,131.93189 C 267.26796,114.32976 285.07769,101.69483 306.01684,101.69483 C 330.33276,101.6948 350.40503,118.69794 353.80575,140.78759 C 363.66313,127.37525 378.79808,118.76799 395.77064,118.76799 C 410.92224,118.76799 424.60776,125.62764 434.38472,136.63897 C 434.98281,133.26766 435.34209,129.854 435.34209,126.3472 C 435.34209,86.852112 396.06868,54.783508 347.74238,54.783508 z "
       id="path3288"
       sodipodi:nodetypes="cscscscsc"
       inkscape:export-filename="C:\Documents and Settings\agms001\Desktop\pingu.png"
       inkscape:export-xdpi="436.38"
       inkscape:export-ydpi="436.38" />
    <path
       style="fill:url(#linearGradient5300);fill-opacity:1;stroke:none;stroke-opacity:1"
       d="M 306.8556,105.81904 C 280.32044,105.81904 258.78639,127.47195 258.78639,154.08437 C 258.78639,161.04986 260.32618,167.59654 262.98036,173.57765 C 262.70713,171.26175 262.49644,168.95997 262.49644,166.56007 C 262.49646,137.23137 283.57339,112.71959 309.51715,113.38242 C 327.86623,113.84311 341.20663,127.04969 345.9944,136.41735 C 344.45905,122.33295 328.76065,106.12617 306.8556,105.81904 z "
       id="path3307"
       sodipodi:nodetypes="cscsscc"
       inkscape:export-filename="C:\Documents and Settings\agms001\Desktop\pingu.png"
       inkscape:export-xdpi="436.38"
       inkscape:export-ydpi="436.38" />
    <path
       style="fill:url(#linearGradient5302);fill-opacity:1;stroke:none;stroke-opacity:1"
       d="M 398.06387,123.32433 C 385.03712,122.40691 371.42837,127.28306 362.95219,138.73468 C 369.75226,133.12993 383.46859,129.2902 393.8706,129.88737 C 404.28412,130.48518 419.85676,133.23774 434.38599,151.34684 C 434.0068,133.6126 411.32393,124.25819 398.06387,123.32433 z "
       id="path4281"
       sodipodi:nodetypes="cczcz"
       inkscape:export-filename="C:\Documents and Settings\agms001\Desktop\pingu.png"
       inkscape:export-xdpi="436.38"
       inkscape:export-ydpi="436.38" />
    <path
       style="fill:url(#linearGradient5312);fill-opacity:1;fill-rule:evenodd;stroke:none;stroke-width:1px;stroke-linecap:butt;stroke-linejoin:miter;stroke-opacity:1"
       d="M 221.12719,221.61589 C 211.38572,237.20163 199.22551,251.52037 178.87292,267.24134 C 158.65977,282.8546 147.18277,299.73657 145.37926,304.32181 C 143.49984,309.10007 142.72649,310.7994 144.62061,315.16313 C 179.06735,275.19752 212.31008,264.54259 217.83883,254.67168 C 223.31531,244.89404 222.42498,231.36119 221.12719,221.61589 z "
       id="path5258"
       sodipodi:nodetypes="czzczc"
       inkscape:export-filename="C:\Documents and Settings\agms001\Desktop\pingu.png"
       inkscape:export-xdpi="436.38"
       inkscape:export-ydpi="436.38" />
    <path
       sodipodi:nodetypes="czzczc"
       id="path5260"
       d="M 480.1394,222.87283 C 489.88087,238.45857 502.04108,252.77731 522.39367,268.49828 C 542.60682,284.11154 554.08382,300.99352 555.88733,305.57875 C 557.76675,310.35701 558.5401,312.05634 556.64598,316.42008 C 522.19924,276.45447 488.95651,265.79953 483.42776,255.92863 C 477.95128,246.15098 478.84161,232.61813 480.1394,222.87283 z "
       style="fill:url(#linearGradient5314);fill-opacity:1;fill-rule:evenodd;stroke:none;stroke-width:1px;stroke-linecap:butt;stroke-linejoin:miter;stroke-opacity:1"
       inkscape:export-filename="C:\Documents and Settings\agms001\Desktop\pingu.png"
       inkscape:export-xdpi="436.38"
       inkscape:export-ydpi="436.38" />
    <path
       style="opacity:1;fill:url(#linearGradient5310);fill-opacity:1;fill-rule:evenodd;stroke:none;stroke-width:0.2;stroke-linecap:butt;stroke-linejoin:miter;stroke-miterlimit:4;stroke-opacity:1;display:inline"
       d="M 492.42054,321.29954 C 456.86056,378.11258 405.53098,413.76715 348.58204,413.76715 C 293.3398,413.76715 243.48845,380.1498 208.09044,326.28095 C 226.60972,423.305 325.71479,443.45399 349.82739,442.33248 C 374.34556,443.47286 476.39096,422.60039 492.42054,321.29954 z "
       id="path5264"
       sodipodi:nodetypes="csccc"
       inkscape:export-filename="C:\Documents and Settings\agms001\Desktop\pingu.png"
       inkscape:export-xdpi="436.38"
       inkscape:export-ydpi="436.38" />
  </g>
  <g
     inkscape:groupmode="layer"
     id="layer9"
     inkscape:label="ombra"
     style="display:inline">
    <g
       id="g9415"
       style="opacity:0.75;filter:url(#filter10453)"
       inkscape:export-filename="C:\Documents and Settings\agms001\Desktop\pingu.png"
       inkscape:export-xdpi="436.38"
       inkscape:export-ydpi="436.38"
       transform="matrix(2.552997,0,0,2.552997,-543.25356,-405.63354)">
      <path
         id="path9400"
         d="M 347.34375,235.40625 C 341.32208,235.63534 335.88648,237.44155 334.8125,241.40625 C 333.21594,247.30013 346.88138,260.62069 350.8125,260.375 C 354.75129,260.12884 366.85483,245.22945 365.1875,241.03125 C 363.75044,237.41283 355.08589,235.11171 347.34375,235.40625 z "
         style="fill:#000000;fill-opacity:1;fill-rule:evenodd;stroke:none;stroke-width:1px;stroke-linecap:butt;stroke-linejoin:miter;stroke-opacity:1;display:inline" />
      <path
         transform="translate(-1.7232208,0)"
         d="m 351.78327,225.15953 c 0,11.14859 -7.38448,20.1863 -16.49369,20.1863 -9.10921,0 -16.49369,-9.03771 -16.49369,-20.1863 0,-11.14859 7.38448,-20.1863 16.49369,-20.1863 9.10921,0 16.49369,9.03771 16.49369,20.1863 z"
         sodipodi:ry="20.186304"
         sodipodi:rx="16.493689"
         sodipodi:cy="225.15953"
         sodipodi:cx="335.28958"
         id="path9402"
         style="opacity:1;fill:#000000;fill-opacity:1;stroke:none;stroke-width:0.2;stroke-linecap:round;stroke-linejoin:round;stroke-miterlimit:4;stroke-dasharray:none;stroke-opacity:1;display:inline"
         sodipodi:type="arc" />
      <path
         transform="matrix(1.0072276,0,0,1.0349381,-3.7677489,-8.6739852)"
         d="m 384.77065,227.12892 c 0,7.74963 -7.49469,14.03194 -16.73986,14.03194 -9.24517,0 -16.73986,-6.28231 -16.73986,-14.03194 0,-7.74963 7.49469,-14.03194 16.73986,-14.03194 9.24517,0 16.73986,6.28231 16.73986,14.03194 z"
         sodipodi:ry="14.031943"
         sodipodi:rx="16.739862"
         sodipodi:cy="227.12892"
         sodipodi:cx="368.03079"
         id="path9404"
         style="opacity:1;fill:#000000;fill-opacity:1;stroke:none;stroke-width:0.1998063;stroke-linecap:round;stroke-linejoin:round;stroke-miterlimit:4;stroke-dasharray:none;stroke-opacity:1;display:inline"
         sodipodi:type="arc" />
    </g>
    <g
       id="g9347"
       style="opacity:0.75;display:inline;filter:url(#filter9395)"
       inkscape:export-filename="C:\Documents and Settings\agms001\Desktop\pingu.png"
       inkscape:export-xdpi="436.38"
       inkscape:export-ydpi="436.38"
       transform="matrix(2.552997,0,0,2.552997,-543.25356,-405.63354)">
      <path
         sodipodi:nodetypes="ccc"
         id="path7460"
         d="M 303.65625,311.24789 C 313.73656,324.00767 328.70977,332.39652 345.29236,333.7546 C 345.87704,312.75074 320.89761,305.37739 303.65625,311.24789 z "
         style="opacity:1;fill:#000000;fill-opacity:1;fill-rule:evenodd;stroke:none;stroke-width:1px;stroke-linecap:butt;stroke-linejoin:miter;stroke-opacity:1;display:inline" />
      <path
         sodipodi:nodetypes="ccc"
         id="path7466"
         d="M 354.60279,333.51989 C 370.9746,331.96448 385.62257,324.49952 395.55811,311.8125 C 377.83115,304.18727 353.25452,315.16348 354.60279,333.51989 z "
         style="opacity:1;fill:#000000;fill-opacity:1;fill-rule:evenodd;stroke:none;stroke-width:1px;stroke-linecap:butt;stroke-linejoin:miter;stroke-opacity:1;display:inline" />
    </g>
  </g>
  <g
     inkscape:groupmode="layer"
     id="layer1"
     inkscape:label="occhi"
     style="opacity:1;display:inline">
    <path
       sodipodi:type="arc"
       style="opacity:1;fill:url(#radialGradient4152);fill-opacity:1;stroke:none;stroke-width:0.2;stroke-linecap:round;stroke-linejoin:round;stroke-miterlimit:4;stroke-dasharray:none;stroke-opacity:1"
       id="path3156"
       sodipodi:cx="335.28958"
       sodipodi:cy="225.15953"
       sodipodi:rx="16.493689"
       sodipodi:ry="20.186304"
       d="M 351.78327 225.15953 A 16.493689 20.186304 0 1 1  318.79589,225.15953 A 16.493689 20.186304 0 1 1  351.78327 225.15953 z"
       transform="matrix(2.552997,0,0,2.552997,-547.65294,-405.63354)"
       inkscape:export-filename="C:\Documents and Settings\agms001\Desktop\pingu.png"
       inkscape:export-xdpi="436.38"
       inkscape:export-ydpi="436.38" />
    <path
       sodipodi:type="arc"
       style="opacity:1;fill:url(#radialGradient4142);fill-opacity:1;stroke:none;stroke-width:0.1998063;stroke-linecap:round;stroke-linejoin:round;stroke-miterlimit:4;stroke-dasharray:none;stroke-opacity:1"
       id="path3158"
       sodipodi:cx="368.03079"
       sodipodi:cy="227.12892"
       sodipodi:rx="16.739862"
       sodipodi:ry="14.031943"
       d="M 384.77065 227.12892 A 16.739862 14.031943 0 1 1  351.29093,227.12892 A 16.739862 14.031943 0 1 1  384.77065 227.12892 z"
       transform="matrix(2.571449,0,0,2.6421938,-552.87261,-427.7782)"
       inkscape:export-filename="C:\Documents and Settings\agms001\Desktop\pingu.png"
       inkscape:export-xdpi="436.38"
       inkscape:export-ydpi="436.38" />
    <path
       style="opacity:1;fill:url(#linearGradient4175);fill-opacity:1;stroke:none;stroke-width:0.1998063;stroke-linecap:round;stroke-linejoin:round;stroke-miterlimit:4;stroke-dasharray:none;stroke-opacity:1"
       d="M 432.27947,181.58757 C 430.29916,183.50092 428.319,185.46877 426.25638,187.02301 C 423.13611,189.37424 419.92962,191.32379 416.63419,192.89919 C 413.33873,194.47457 409.95259,195.71686 406.4978,196.57178 C 403.043,197.42673 399.51903,197.92441 395.9207,198.11427 C 392.32238,198.30414 388.62894,198.16684 384.90291,197.747 C 381.17687,197.32716 377.42919,196.59108 373.5913,195.61691 C 369.75338,194.64273 365.8464,193.4174 361.91241,191.94429 C 361.06167,191.62575 360.19639,191.18283 359.34159,190.84252 C 366.16573,201.18382 378.9408,208.25064 393.71714,208.25064 C 412.60589,208.25064 428.32018,196.83446 432.27947,181.58757 z "
       id="path4143"
       inkscape:export-filename="C:\Documents and Settings\agms001\Desktop\pingu.png"
       inkscape:export-xdpi="436.38"
       inkscape:export-ydpi="436.38" />
    <path
       style="opacity:1;fill:url(#linearGradient4151);fill-opacity:1;stroke:none;stroke-width:0.1998063;stroke-linecap:round;stroke-linejoin:round;stroke-miterlimit:4;stroke-dasharray:none;stroke-opacity:1"
       d="M 394.50601,137.00418 C 387.7241,137.00418 381.42461,138.59459 375.86117,141.21198 C 377.33358,141.4935 378.92372,141.60866 380.28661,142.00999 C 383.10282,142.83934 385.66639,143.94108 388.04925,145.20211 C 390.43209,146.46314 392.65532,147.89741 394.6511,149.48244 C 398.64268,152.65249 401.86885,156.39986 404.59017,160.21955 C 407.31151,164.03924 409.51549,167.9294 411.33715,171.53704 C 417.08788,168.57237 421.85627,166.56592 425.7742,165.15281 C 428.62728,164.12375 430.59183,163.7204 432.59371,163.26655 C 428.64635,148.24503 413.13472,137.00418 394.50601,137.00418 z "
       id="path4133"
       inkscape:export-filename="C:\Documents and Settings\agms001\Desktop\pingu.png"
       inkscape:export-xdpi="436.38"
       inkscape:export-ydpi="436.38" />
    <g
       id="g4231"
       inkscape:export-filename="C:\Documents and Settings\agms001\Desktop\pingu.png"
       inkscape:export-xdpi="436.38"
       inkscape:export-ydpi="436.38"
       transform="matrix(2.552997,0,0,2.552997,-543.25356,-405.63354)">
      <path
         transform="translate(-0.8616104,-0.1230872)"
         d="m 360.52247,227.37509 c 0,3.67088 -2.09411,6.64671 -4.67732,6.64671 -2.58321,0 -4.67731,-2.97583 -4.67731,-6.64671 0,-3.67087 2.0941,-6.64671 4.67731,-6.64671 2.58321,0 4.67732,2.97584 4.67732,6.64671 z"
         sodipodi:ry="6.6467099"
         sodipodi:rx="4.6773143"
         sodipodi:cy="227.37509"
         sodipodi:cx="355.84515"
         id="path4177"
         style="opacity:1;fill:#000000;fill-opacity:1;stroke:none;stroke-width:0.204;stroke-linecap:round;stroke-linejoin:round;stroke-miterlimit:4;stroke-dasharray:none;stroke-opacity:1"
         sodipodi:type="arc" />
      <path
         id="path4213"
         d="M 358.12811,231.52328 C 356.01259,232.48412 352.4964,231.84547 350.84685,228.70141 C 351.69155,232.81981 354.90794,235.57986 358.12811,231.52328 z "
         style="opacity:1;fill:url(#linearGradient4229);fill-opacity:1;stroke:none;stroke-width:0.204;stroke-linecap:round;stroke-linejoin:round;stroke-miterlimit:4;stroke-dasharray:none;stroke-opacity:1"
         sodipodi:nodetypes="ccc" />
      <path
         sodipodi:nodetypes="ccc"
         id="path4183"
         d="M 352.8235,222.45732 C 354.09252,224.58791 355.66271,228.21844 359.06824,226.31446 C 357.76433,222.17465 355.36902,220.54675 352.8235,222.45732 z "
         style="opacity:1;fill:url(#linearGradient4221);fill-opacity:1;stroke:none;stroke-width:0.204;stroke-linecap:round;stroke-linejoin:round;stroke-miterlimit:4;stroke-dasharray:none;stroke-opacity:1" />
    </g>
    <path
       style="opacity:1;fill:url(#linearGradient4264);fill-opacity:1;stroke:none;stroke-width:0.2;stroke-linecap:round;stroke-linejoin:round;stroke-miterlimit:4;stroke-dasharray:none;stroke-opacity:1"
       d="M 287.82674,126.14776 C 320.11867,131.57457 329.24454,156.95212 340.17242,180.28238 C 341.89188,184.15676 342.87877,188.52585 344.0614,192.80491 C 347.01409,185.87033 348.88373,178.13804 348.88373,169.78213 C 348.64849,137.02542 318.72063,107.09454 287.82674,126.14776 z "
       id="path4252"
       sodipodi:nodetypes="ccccc"
       inkscape:export-filename="C:\Documents and Settings\agms001\Desktop\pingu.png"
       inkscape:export-xdpi="436.38"
       inkscape:export-ydpi="436.38" />
    <g
       id="g4236"
       transform="matrix(2.8789435,0,0,2.8789435,-686.03696,-482.31638)"
       inkscape:export-filename="C:\Documents and Settings\agms001\Desktop\pingu.png"
       inkscape:export-xdpi="436.38"
       inkscape:export-ydpi="436.38">
      <path
         sodipodi:type="arc"
         style="opacity:1;fill:#000000;fill-opacity:1;stroke:none;stroke-width:0.204;stroke-linecap:round;stroke-linejoin:round;stroke-miterlimit:4;stroke-dasharray:none;stroke-opacity:1"
         id="path4238"
         sodipodi:cx="355.84515"
         sodipodi:cy="227.37509"
         sodipodi:rx="4.6773143"
         sodipodi:ry="6.6467099"
         d="m 360.52247,227.37509 c 0,3.67088 -2.09411,6.64671 -4.67732,6.64671 -2.58321,0 -4.67731,-2.97583 -4.67731,-6.64671 0,-3.67087 2.0941,-6.64671 4.67731,-6.64671 2.58321,0 4.67732,2.97584 4.67732,6.64671 z"
         transform="translate(-0.8616104,-0.1230872)" />
      <path
         style="opacity:1;fill:url(#linearGradient4244);fill-opacity:1;stroke:none;stroke-width:0.204;stroke-linecap:round;stroke-linejoin:round;stroke-miterlimit:4;stroke-dasharray:none;stroke-opacity:1"
         d="M 358.05553,231.46115 C 354.57561,233.79625 352.03832,231.86114 350.69184,227.17679 C 350.77926,232.97461 355.37445,235.52021 358.05553,231.46115 z "
         id="path4240"
         sodipodi:nodetypes="ccc" />
      <path
         style="opacity:1;fill:url(#linearGradient4246);fill-opacity:1;stroke:none;stroke-width:0.204;stroke-linecap:round;stroke-linejoin:round;stroke-miterlimit:4;stroke-dasharray:none;stroke-opacity:1"
         d="M 352.79621,222.07529 C 356.30284,223.49639 355.63542,227.83641 359.04095,225.93243 C 357.73704,221.79262 355.34173,220.16472 352.79621,222.07529 z "
         id="path4242"
         sodipodi:nodetypes="ccc" />
    </g>
    <path
       style="opacity:1;fill:url(#linearGradient4266);fill-opacity:1;stroke:none;stroke-width:0.2;stroke-linecap:round;stroke-linejoin:round;stroke-miterlimit:4;stroke-dasharray:none;stroke-opacity:1"
       d="M 335.35514,204.12469 C 313.85742,213.8642 271.19406,211.93518 275.13829,144.77522 C 252.33645,208.64339 309.91304,236.86979 335.35514,204.12469 z "
       id="path4262"
       sodipodi:nodetypes="ccc"
       inkscape:export-filename="C:\Documents and Settings\agms001\Desktop\pingu.png"
       inkscape:export-xdpi="436.38"
       inkscape:export-ydpi="436.38" />
  </g>
  <g
     inkscape:groupmode="layer"
     id="layer4"
     inkscape:label="beccho"
     style="display:inline">
    <path
       style="fill:url(#radialGradient4287);fill-opacity:1;fill-rule:evenodd;stroke:none;stroke-width:1px;stroke-linecap:butt;stroke-linejoin:miter;stroke-opacity:1"
       d="M 352.33415,259.07106 C 362.38987,258.44259 393.35706,220.45317 389.10037,209.73518 C 382.578,193.31242 317.74988,187.54218 311.48278,210.6779 C 307.40677,225.72496 342.29801,259.6983 352.33415,259.07106 z "
       id="path4269"
       sodipodi:nodetypes="cssz"
       inkscape:export-filename="C:\Documents and Settings\agms001\Desktop\pingu.png"
       inkscape:export-xdpi="436.38"
       inkscape:export-ydpi="436.38" />
    <path
       style="fill:url(#linearGradient4327);fill-opacity:1;fill-rule:evenodd;stroke:none;stroke-width:1px;stroke-linecap:butt;stroke-linejoin:miter;stroke-opacity:1"
       d="M 350.38665,197.03673 C 337.27992,196.59253 324.29254,199.16154 318.17452,205.65585 C 322.95819,206.92142 329.3234,208.6979 336.5084,211.35325 C 340.23055,212.7288 344.16078,214.31133 348.12229,216.10106 C 352.08381,217.89076 356.10391,219.9317 360.02835,222.16366 C 363.95282,224.39559 367.73919,226.83876 371.35007,229.54103 C 372.95946,230.74543 374.29833,232.18348 375.80572,233.48538 C 382.51931,224.27647 387.72775,214.63875 385.95876,210.18454 C 382.973,202.66665 366.68861,197.5892 350.38665,197.03673 z "
       id="path4289"
       inkscape:export-filename="C:\Documents and Settings\agms001\Desktop\pingu.png"
       inkscape:export-xdpi="436.38"
       inkscape:export-ydpi="436.38" />
    <path
       style="fill:url(#linearGradient4342);fill-opacity:1;fill-rule:evenodd;stroke:none;stroke-width:1px;stroke-linecap:butt;stroke-linejoin:miter;stroke-opacity:1"
       d="M 354.88314,255.16431 C 353.21129,254.64939 351.53118,254.15154 349.74878,253.1778 C 347.35384,251.86941 344.95063,250.15352 342.46873,248.2115 C 337.50492,244.3275 332.44564,239.38431 327.90861,234.30592 C 323.3716,229.22754 319.33784,224.04578 316.26051,219.55986 C 313.85681,216.05589 312.69119,213.63259 311.73925,211.46101 C 309.46211,226.30247 341.54304,257.35654 350.97491,256.76879 C 352.03581,256.70269 353.40909,256.01167 354.88314,255.16431 z "
       id="path4334"
       inkscape:export-filename="C:\Documents and Settings\agms001\Desktop\pingu.png"
       inkscape:export-xdpi="436.38"
       inkscape:export-ydpi="436.38" />
  </g>
  <g
     inkscape:groupmode="layer"
     id="layer5"
     inkscape:label="piedi"
     style="display:inline">
    <g
       id="g5672">
      <g
         id="g4372">
        <path
           style="opacity:1;fill:url(#radialGradient4358);fill-opacity:1;fill-rule:evenodd;stroke:none;stroke-width:1px;stroke-linecap:butt;stroke-linejoin:miter;stroke-opacity:1;display:inline"
           d="M 202.75529,458.30005 C 209.12093,459.89146 318.60225,462.6574 327.19484,458.92855 C 335.52223,455.31478 338.82461,449.50903 338.50753,441.64527 C 337.72192,421.84808 314.46823,383.5157 264.97506,384.76758 C 206.67125,386.23303 185.31492,429.54697 186.41475,441.33102 C 187.51767,453.14823 196.47047,456.72883 202.75529,458.30005 z "
           id="path4344"
           sodipodi:nodetypes="czsszz"
           inkscape:export-filename="C:\Documents and Settings\agms001\Desktop\pingu.png"
           inkscape:export-xdpi="436.38"
           inkscape:export-ydpi="436.38" />
        <path
           style="fill:url(#linearGradient4370);fill-opacity:1;fill-rule:evenodd;stroke:none;stroke-width:1px;stroke-linecap:butt;stroke-linejoin:miter;stroke-opacity:1"
           d="M 253.66238,394.8233 C 275.69706,393.34249 294.19953,406.21454 295.14225,423.10502 C 295.90919,436.84604 278.17322,447.85153 256.17631,449.81555 C 234.17944,451.77954 207.67611,444.71359 207.15469,430.96105 C 206.52619,414.07058 224.12369,396.7873 253.66238,394.8233 z "
           id="path4360"
           sodipodi:nodetypes="cssss"
           inkscape:export-filename="C:\Documents and Settings\agms001\Desktop\pingu.png"
           inkscape:export-xdpi="436.38"
           inkscape:export-ydpi="436.38" />
      </g>
      <g
         transform="matrix(-2.552997,0,0,2.552997,1244.274,-405.63354)"
         id="g4376"
         inkscape:export-filename="C:\Documents and Settings\agms001\Desktop\pingu.png"
         inkscape:export-xdpi="436.38"
         inkscape:export-ydpi="436.38">
        <path
           sodipodi:nodetypes="czsszz"
           id="path4378"
           d="M 292.20906,338.39977 C 294.70246,339.02312 337.58591,340.10653 340.9516,338.64595 C 344.21341,337.23045 345.50694,334.95636 345.38274,331.87615 C 345.07502,324.12166 335.96663,309.107 316.58033,309.59736 C 293.74293,310.17137 285.37773,327.13729 285.80853,331.75306 C 286.24054,336.38182 289.74732,337.78433 292.20906,338.39977 z "
           style="opacity:1;fill:url(#radialGradient4382);fill-opacity:1;fill-rule:evenodd;stroke:none;stroke-width:1px;stroke-linecap:butt;stroke-linejoin:miter;stroke-opacity:1;display:inline" />
        <path
           sodipodi:nodetypes="cssss"
           id="path4380"
           d="M 312.14919,313.53615 C 320.7801,312.95612 328.02745,317.99806 328.39671,324.614 C 328.69712,329.99631 321.75,334.30712 313.13389,335.07642 C 304.51779,335.84571 294.13653,333.078 293.93229,327.69118 C 293.68611,321.07524 300.57899,314.30544 312.14919,313.53615 z "
           style="fill:url(#linearGradient4384);fill-opacity:1;fill-rule:evenodd;stroke:none;stroke-width:1px;stroke-linecap:butt;stroke-linejoin:miter;stroke-opacity:1" />
      </g>
    </g>
  </g>
</svg>
